<?xml version="1.0" encoding="UTF-8"?>
<svg id="katman_1" data-name="katman 1" xmlns="http://www.w3.org/2000/svg" xmlns:xlink="http://www.w3.org/1999/xlink" viewBox="0 0 2122 518">
  <defs>
    <style>
      .cls-1 {
        fill: url(#Adsız_degrade_12-6);
      }

      .cls-2 {
        fill: url(#Adsız_degrade_12-8);
      }

      .cls-3 {
        fill: url(#Adsız_degrade_12-10);
      }

      .cls-4 {
        fill: url(#Adsız_degrade_12-11);
      }

      .cls-5 {
        fill: url(#Adsız_degrade_12-2);
      }

      .cls-6 {
        fill: url(#Adsız_degrade_12-7);
      }

      .cls-7 {
        fill: url(#Adsız_degrade_12-4);
      }

      .cls-8 {
        fill: url(#Adsız_degrade_12-12);
      }

      .cls-9 {
        fill: url(#Adsız_degrade_12-3);
      }

      .cls-10 {
        fill: url(#Adsız_degrade_12);
      }

      .cls-11, .cls-12 {
        fill: none;
      }

      .cls-12 {
        clip-path: url(#clippath);
      }

      .cls-13 {
        fill: url(#Adsız_degrade_12-9);
      }

      .cls-14 {
        fill: url(#Adsız_degrade_12-5);
      }
    </style>
    <clipPath id="clippath">
      <rect class="cls-11" width="2122" height="518"/>
    </clipPath>
    <linearGradient id="Adsız_degrade_12" data-name="Adsız degrade 12" x1="578.23" y1="-4933.39" x2="597.72" y2="-4743.86" gradientTransform="translate(0 -4578.67) scale(1 -1)" gradientUnits="userSpaceOnUse">
      <stop offset="0" stop-color="#0082ff"/>
      <stop offset="1" stop-color="#a894ff"/>
    </linearGradient>
    <linearGradient id="Adsız_degrade_12-2" data-name="Adsız degrade 12" x1="689.55" y1="-4912.48" x2="768.53" y2="-4762.55" xlink:href="#Adsız_degrade_12"/>
    <linearGradient id="Adsız_degrade_12-3" data-name="Adsız degrade 12" x1="854.8" y1="-4936.26" x2="870.28" y2="-4784.99" xlink:href="#Adsız_degrade_12"/>
    <linearGradient id="Adsız_degrade_12-4" data-name="Adsız degrade 12" x1="1049.76" y1="-4936.26" x2="1065.25" y2="-4784.99" xlink:href="#Adsız_degrade_12"/>
    <linearGradient id="Adsız_degrade_12-5" data-name="Adsız degrade 12" x1="1243.63" y1="-4935.59" x2="1268.52" y2="-4744.42" xlink:href="#Adsız_degrade_12"/>
    <linearGradient id="Adsız_degrade_12-6" data-name="Adsız degrade 12" x1="1438.64" y1="-4935.59" x2="1463.54" y2="-4744.42" xlink:href="#Adsız_degrade_12"/>
    <linearGradient id="Adsız_degrade_12-7" data-name="Adsız degrade 12" x1="1538.5" y1="-4915.07" x2="1615.66" y2="-4759.91" xlink:href="#Adsız_degrade_12"/>
    <linearGradient id="Adsız_degrade_12-8" data-name="Adsız degrade 12" x1="1699.23" y1="-4933.13" x2="1714.15" y2="-4784.6" xlink:href="#Adsız_degrade_12"/>
    <linearGradient id="Adsız_degrade_12-9" data-name="Adsız degrade 12" x1="1834.94" y1="-4934.42" x2="1839.71" y2="-4892.03" xlink:href="#Adsız_degrade_12"/>
    <linearGradient id="Adsız_degrade_12-10" data-name="Adsız degrade 12" x1="1964.04" y1="-4936.26" x2="1979.53" y2="-4784.99" xlink:href="#Adsız_degrade_12"/>
    <linearGradient id="Adsız_degrade_12-11" data-name="Adsız degrade 12" x1="2062.74" y1="-4915.07" x2="2139.91" y2="-4759.91" xlink:href="#Adsız_degrade_12"/>
    <linearGradient id="Adsız_degrade_12-12" data-name="Adsız degrade 12" x1="234.54" y1="-5090.37" x2="294.42" y2="-4592.58" xlink:href="#Adsız_degrade_12"/>
  </defs>
  <g class="cls-12">
    <g>
      <path class="cls-10" d="m470.6,356.79l87.22-196.48h39.88l87.82,196.48h-43.79l-25.62-57.14h-76.21l-25.62,57.14h-43.79.1Zm83.97-89.91h47.04l-23.52-52.68-23.52,52.68Z"/>
      <path class="cls-5" d="m708.2,356.79v-196.48h41.98v196.48h-41.98Z"/>
      <path class="cls-9" d="m772.81,282.09c0-50.03,31.28-79.5,72.36-79.2,25.02.3,50.59,13.71,58.35,38.68v-35.72h41.68v150.9h-41.68v-36.32c-7.16,23.52-31.58,38.98-56.3,39.28-42.89.3-74.41-34.22-74.41-77.7v.1Zm128.91-.3c0-27.67-19.97-44.33-43.49-44.63-24.12-.3-43.79,16.06-43.79,44.63,0,25.92,19.97,43.78,43.79,43.18,23.22-.3,43.49-17.56,43.49-43.18Z"/>
      <path class="cls-7" d="m967.77,282.09c0-50.03,31.28-79.5,72.36-79.2,25.02.3,50.6,13.71,58.35,38.68v-35.72h41.69v150.9h-41.69v-36.32c-7.15,23.52-31.57,38.98-56.3,39.28-42.88.3-74.41-34.22-74.41-77.7v.1Zm128.91-.3c0-27.67-19.97-44.33-43.49-44.63-24.12-.3-43.78,16.06-43.78,44.63,0,25.92,19.96,43.78,43.78,43.18,23.22-.3,43.49-17.56,43.49-43.18Z"/>
      <path class="cls-14" d="m1162.79,282.09c0-50.03,31.27-79.5,72.36-79.2,25.02.3,50.59,13.71,58.35,38.68v-81.26h41.68v196.48h-41.68v-36.32c-7.16,23.51-31.58,38.98-56.3,39.28-42.89.3-74.41-34.22-74.41-77.7v.05Zm128.91-.3c0-27.97-19.97-44.33-43.49-44.63-24.12-.3-43.79,16.06-43.79,44.63,0,25.92,19.97,43.78,43.79,43.18,23.22-.3,43.49-17.56,43.49-43.18Z"/>
      <path class="cls-1" d="m1357.8,282.09c0-50.03,31.28-79.5,72.36-79.2,25.02.3,50.6,13.71,58.35,38.68v-81.26h41.69v196.48h-41.69v-36.32c-7.15,23.51-31.57,38.98-56.29,39.28-42.89.3-74.42-34.22-74.42-77.7v.05Zm128.91-.3c0-27.97-19.97-44.33-43.49-44.63-24.12-.3-43.78,16.06-43.78,44.63,0,25.92,19.96,43.78,43.78,43.18,23.22-.3,43.49-17.56,43.49-43.18Z"/>
      <path class="cls-6" d="m1552.77,174.92c0-10.11,11.01-16.66,22.62-16.66s22.32,6.55,22.32,16.66-11.01,16.96-22.32,16.96-22.62-6.56-22.62-16.96Zm1.5,181.87v-150.9h41.68v150.9h-41.68Z"/>
      <path class="cls-2" d="m1620.37,356.79v-150.9h41.99v35.72c7.76-25.02,33.33-38.38,58.35-38.68,40.78-.3,72.06,29.17,72.06,79.2v74.7h-41.68v-75c0-28.57-19.37-44.93-43.49-44.63-23.82.3-43.79,16.66-43.79,44.63v75h-43.49l.05-.05Z"/>
      <path class="cls-13" d="m1815.34,334.18c0-11.61,10.11-21.71,22.02-21.71s22.02,10.11,22.02,21.71c0,12.21-10.11,22.32-22.02,22.32s-22.02-10.11-22.02-22.32Z"/>
      <path class="cls-3" d="m1882.05,282.09c0-50.03,31.27-79.5,72.36-79.2,25.02.3,50.59,13.71,58.35,38.68v-35.72h41.68v150.9h-41.68v-36.32c-7.16,23.52-31.58,38.98-56.3,39.28-42.89.3-74.41-34.22-74.41-77.7v.1Zm128.91-.3c0-27.67-19.97-44.33-43.49-44.63-24.12-.3-43.79,16.06-43.79,44.63,0,25.92,19.97,43.78,43.79,43.18,23.22-.3,43.49-17.56,43.49-43.18Z"/>
      <path class="cls-4" d="m2077.01,174.92c0-10.11,11.01-16.66,22.62-16.66s22.32,6.55,22.32,16.66-11.01,16.96-22.32,16.96-22.62-6.56-22.62-16.96Zm1.5,181.87v-150.9h41.69v150.9h-41.69Z"/>
      <path class="cls-8" d="m484.61,478.92c-11.01-1.75-23.17-1.65-35.68-.25-58.45,6.2-124.86,39.38-124.86,39.38,0,0-33.28-44.98-178.2-25.42h-.35C1.05,512.05,0,415.43,0,415.43c86.12,60.84,115.55,33.12,115.55,33.12,7.41,5.6,15.86,9.46,24.87,12.01-.05-1.2-.05-2.4-.05-3.6v-32.87c0-8.81-2.4-17.51-6.91-25.07v-.1l-42.59-72.25c-12.76-21.61,2.8-48.93,27.97-48.93h47.04v-67.1s-36.33-6.4-46.99-46.48h117.05c1.75,6.45,7.66,11.21,14.66,11.21,8.41,0,15.21-6.81,15.21-15.21s-6.81-15.16-15.21-15.16c-7.01,0-12.91,4.75-14.66,11.21h-118.8c-.8-4.9-1.25-10.26-1.25-16.01,0-24.97,12.41-45.38,33.03-57.09,16.26-9.26,39.68-10.51,58.4-10.51h.25c-9.66-12.11-24.22-26.82-38.63-28.07-24.82-2.2-40.18,20.11-40.18,20.11,0,0,3.45-68.65,51.89-64.39,42.84,3.8,41.29,59.39,40.33,72.35l18.82,1.2c11.51.75,22.77,3.8,33.03,9.06,11.61,5.9,21.12,15.01,27.52,26.07.25.4.45.8.65,1.15h-106.04c-1.95-7.25-8.56-12.56-16.41-12.56-9.41,0-17.06,7.66-17.06,17.06s7.61,17.06,17.06,17.06c7.86,0,14.46-5.3,16.41-12.56h110.14c.15.4.3.75.4,1.15.45,1.3.9,2.6,1.25,3.95l5,17.61h-23.97l33.68,60.14h-23.52v14.71s11.76,8.81,11.76,20.56-17.62,20.51-17.62,20.51v-14.71h-29.42v34.82h40.78c11.16,0,21.57,5.8,27.52,15.26l45.19,72.25c13.51,21.61-2,49.63-27.52,49.63h-56.95v29.02c13.11-1.7,26.42-2.7,39.73-2.95,119.75-2.45,153.03,37.98,153.03,37.98l.15-.1Z"/>
    </g>
  </g>
</svg>